<?xml version="1.0"?>
<svg version="1.1" xmlns="http://www.w3.org/2000/svg" xmlns:xlink="http://www.w3.org/1999/xlink" width="100" height="135">
    <desc iVinci="yes" version="4.5" gridStep="20" showGrid="no" snapToGrid="no" codePlatform="0"/>
    <g id="Layer1" opacity="1">
        <g id="Shape1">
            <desc shapeID="1" type="0" basicInfo-basicType="0" basicInfo-roundedRectRadius="12" basicInfo-polygonSides="6" basicInfo-starPoints="5" bounding="rect(-35,-48.2585,70,96.517)" text="" font-familyName="" font-pixelSize="20" font-bold="0" font-underline="0" font-alignment="1" strokeStyle="0" markerStart="0" markerEnd="0" shadowEnabled="0" shadowOffsetX="0" shadowOffsetY="2" shadowBlur="4" shadowOpacity="160" blurEnabled="0" blurRadius="4" transform="matrix(1,0,0,1,50,49.9995)" pers-center="0,0" pers-size="0,0" pers-start="0,0" pers-end="0,0" locked="0" mesh="" flag=""/>
            <path id="shapePath1" d="M84.175,34.768 L56.589,4.159 L54.45,1.741 L51.695,3.446 L32.676,15.124 L32.133,15.461 L31.723,15.956 L15.923,34.888 L15,35.979 L15,37.401 L15,75.993 L15,77.943 L16.569,79.121 L29.984,89.285 L30.357,89.565 L30.783,89.751 L48.517,97.536 L50.161,98.258 L51.782,97.487 L82.95,82.566 L85,81.501 L85,79.022 L85,37.402 L85,35.89 L84.175,34.768 M31.271,72.192 L41.237,81.713 L32.955,85.819 L31.271,72.192 M21.647,39.481 L31.463,44.753 L39.528,73.234 L31,56.359 L21.647,39.481 M30.105,33.782 L30.986,42.355 L21.304,37.229 L30.105,33.782 M28.567,56.813 L19,73.978 L19,39.156 L28.567,56.813 M30.93,69.152 L30.726,60.975 L39.238,77.089 L30.93,69.152 M43.728,81.2 L33.492,45.209 L59.484,47.927 L66.356,63.749 L66,85.983 L63.119,87.634 L43.728,81.2 M66.338,39.62 L73.261,54.591 L61.514,46.742 L66.338,39.62 M67.957,62.006 L62.442,49.723 L73.934,57.402 L67.957,62.006 M68.55,64.027 L75.078,58.999 L81.009,79.232 L68.434,85.216 L68.55,64.027 M76,57.008 L68.06,39.607 L81,45.446 L81,73.769 L76,57.008 M81,43.293 L67.23,36.987 L66.502,21.244 L81,37.401 L81,43.293 M53.738,6.792 L65,19.206 L65.607,37.348 L59.715,45.972 L33.071,43.188 L31.803,32.478 L35,18.121 L53.738,6.792 M33.24,20.27 L30.133,31.663 L20.639,35.382 L33.24,20.27 M20,76 L28.844,60.2 L29.022,69.36 L26.117,81.111 L19.918,76 L20,76 M27.801,82.699 L29.649,75.046 L30.881,85.034 L27.801,82.699 M50.096,93.943 L34.659,87.166 L43.003,83.029 L60.782,88.859 L50.096,93.943 Z" style="stroke:none;fill-rule:nonzero;fill:#000000;fill-opacity:1;"/>
        </g>
    </g>
</svg>
